<svg width="35" height="35" viewBox="0 0 35 35" fill="none" xmlns="http://www.w3.org/2000/svg">
<path d="M27.8333 14.9167V29.7708C27.8333 30.1949 27.7498 30.6148 27.5875 31.0066C27.4252 31.3984 27.1874 31.7543 26.8875 32.0542C26.5877 32.3541 26.2317 32.5919 25.8399 32.7542C25.4481 32.9165 25.0282 33 24.6042 33H5.22917C4.37274 33 3.55139 32.6598 2.9458 32.0542C2.34021 31.4486 2 30.6273 2 29.7708V10.3958C2 9.5394 2.34021 8.71805 2.9458 8.11247C3.55139 7.50688 4.37274 7.16667 5.22917 7.16667H18.7497M23.9583 2H33V11.0417M14.9167 20.0833L32.3542 2.64583" stroke="black" stroke-width="3" stroke-linecap="round" stroke-linejoin="round"/>
</svg>
